<svg width="209" height="192" viewBox="0 0 209 192" fill="none" xmlns="http://www.w3.org/2000/svg">
<g filter="url(#filter0_d_24_273)">
<path d="M128.949 139.136L121.38 100.081C121.065 98.455 122.751 97.1725 124.234 97.9098L161.451 116.409C163.147 117.253 162.83 119.762 160.977 120.157L143.095 123.964C142.561 124.078 142.096 124.406 141.809 124.872L132.616 139.804C131.66 141.356 129.296 140.925 128.949 139.136Z" fill="#FF611E"/>
<path d="M119.908 100.367L127.477 139.421C128.083 142.553 132.221 143.306 133.893 140.59L143.086 125.658C143.158 125.542 143.274 125.46 143.408 125.431L161.29 121.624C164.532 120.933 165.087 116.542 162.119 115.066L124.902 96.5666C122.306 95.2762 119.356 97.5206 119.908 100.367Z" stroke="white" stroke-width="3"/>
</g>
<g filter="url(#filter1_d_24_273)">
<path d="M22.9813 21.9186L58.4169 3.83929C59.8926 3.08641 61.5914 4.3512 61.2932 5.98076L53.8133 46.8636C53.4724 48.7269 50.9732 49.1164 50.0815 47.4452L41.4748 31.3147C41.2174 30.8322 40.7735 30.4762 40.2467 30.3295L23.3539 25.6268C21.598 25.138 21.3577 22.7469 22.9813 21.9186Z" fill="#29314D"/>
<path d="M57.7352 2.50314L22.2996 20.5824C19.4583 22.0321 19.8787 26.2164 22.9516 27.0719L39.8444 31.7746C39.9761 31.8112 40.087 31.9002 40.1514 32.0209L48.7581 48.1513C50.3185 51.0759 54.6923 50.3943 55.2889 47.1336L62.7687 6.25072C63.2905 3.39899 60.3176 1.18561 57.7352 2.50314Z" stroke="white" stroke-width="3"/>
</g>
<path d="M208.5 119.5C164 91.9999 188.8 286.046 146 129.246" stroke="#9E9E9E" stroke-dasharray="5 5"/>
<path d="M56.0002 160.5C104 57.0002 -67.8998 133.646 34.5002 33.2463" stroke="#9E9E9E" stroke-dasharray="5 5"/>
<defs>
<filter id="filter0_d_24_273" x="114.339" y="94.6897" width="55.2236" height="57.0684" filterUnits="userSpaceOnUse" color-interpolation-filters="sRGB">
<feFlood flood-opacity="0" result="BackgroundImageFix"/>
<feColorMatrix in="SourceAlpha" type="matrix" values="0 0 0 0 0 0 0 0 0 0 0 0 0 0 0 0 0 0 127 0" result="hardAlpha"/>
<feOffset dy="4"/>
<feGaussianBlur stdDeviation="2"/>
<feComposite in2="hardAlpha" operator="out"/>
<feColorMatrix type="matrix" values="0 0 0 0 0 0 0 0 0 0 0 0 0 0 0 0 0 0 0.25 0"/>
<feBlend mode="normal" in2="BackgroundImageFix" result="effect1_dropShadow_24_273"/>
<feBlend mode="normal" in="SourceGraphic" in2="effect1_dropShadow_24_273" result="shape"/>
</filter>
<filter id="filter1_d_24_273" x="14.8892" y="0.609863" width="53.4409" height="58.8962" filterUnits="userSpaceOnUse" color-interpolation-filters="sRGB">
<feFlood flood-opacity="0" result="BackgroundImageFix"/>
<feColorMatrix in="SourceAlpha" type="matrix" values="0 0 0 0 0 0 0 0 0 0 0 0 0 0 0 0 0 0 127 0" result="hardAlpha"/>
<feOffset dy="4"/>
<feGaussianBlur stdDeviation="2"/>
<feComposite in2="hardAlpha" operator="out"/>
<feColorMatrix type="matrix" values="0 0 0 0 0 0 0 0 0 0 0 0 0 0 0 0 0 0 0.25 0"/>
<feBlend mode="normal" in2="BackgroundImageFix" result="effect1_dropShadow_24_273"/>
<feBlend mode="normal" in="SourceGraphic" in2="effect1_dropShadow_24_273" result="shape"/>
</filter>
</defs>
</svg>
