<svg width="40" height="40" viewBox="0 0 40 40" fill="none" xmlns="http://www.w3.org/2000/svg">
<path d="M0 18.3598C0 8.21996 8.21996 0 18.3598 0C28.4996 0 36.7196 8.21996 36.7196 18.3598V18.7831C36.7196 28.9229 28.4996 37.1429 18.3598 37.1429H0V18.3598Z" fill="white"/>
<path fill-rule="evenodd" clip-rule="evenodd" d="M36.2963 18.7831V18.3598C36.2963 8.45373 28.2658 0.42328 18.3598 0.42328C8.45373 0.42328 0.42328 8.45373 0.42328 18.3598V36.7196H18.3598C28.2658 36.7196 36.2963 28.6891 36.2963 18.7831ZM18.3598 0C8.21996 0 0 8.21996 0 18.3598V37.1429H18.3598C28.4996 37.1429 36.7196 28.9229 36.7196 18.7831V18.3598C36.7196 8.21996 28.4996 0 18.3598 0Z" fill="#333333"/>
<path d="M3.28027 21.2172C3.28027 11.0774 11.5002 2.85742 21.6401 2.85742C31.7799 2.85742 39.9998 11.0774 39.9998 21.2172V21.6405C39.9998 31.7803 31.7799 40.0003 21.6401 40.0003H3.28027V21.2172Z" fill="#333333"/>
<path d="M14.8149 21.3754C14.8149 17.5766 17.8945 14.4971 21.6932 14.4971C25.492 14.4971 28.5716 17.6029 28.5716 21.4017C28.5716 25.2297 25.4683 28.3595 21.6403 28.3595H14.8149V21.3754Z" fill="#F5F5F5"/>
</svg>
